<svg width="104" height="100" viewBox="0 0 104 100" fill="none" xmlns="http://www.w3.org/2000/svg">
<path d="M35.1328 80.5198C35.1328 80.9334 34.6572 81.2643 34.0576 81.2643C33.3752 81.3263 32.8996 80.9954 32.8996 80.5198C32.8996 80.1063 33.3752 79.7754 33.9748 79.7754C34.5952 79.7134 35.1328 80.0443 35.1328 80.5198ZM28.702 79.5893C28.5572 80.0029 28.9708 80.4785 29.5911 80.6026C30.1288 80.8093 30.7491 80.6026 30.8732 80.189C30.9972 79.7754 30.6043 79.2999 29.984 79.1138C29.4464 78.969 28.8467 79.1758 28.702 79.5893ZM37.8416 79.2378C37.242 79.3826 36.8284 79.7754 36.8904 80.251C36.9525 80.6646 37.4901 80.9334 38.1104 80.7887C38.7101 80.6439 39.1236 80.251 39.0616 79.8375C38.9996 79.4446 38.4413 79.1758 37.8416 79.2378ZM51.4477 0C22.7674 0 0.828125 21.7739 0.828125 50.4541C0.828125 73.386 15.2613 93.0093 35.8772 99.9157C38.524 100.391 39.4545 98.7578 39.4545 97.4137C39.4545 96.1317 39.3925 89.0598 39.3925 84.7175C39.3925 84.7175 24.9179 87.8192 21.8783 78.5554C21.8783 78.5554 19.521 72.5382 16.1298 70.9873C16.1298 70.9873 11.3945 67.7409 16.4606 67.8029C16.4606 67.8029 21.6094 68.2165 24.4423 73.1378C28.9708 81.1195 36.5596 78.8243 39.5165 77.4595C39.9921 74.151 41.3362 71.8558 42.825 70.4911C31.266 69.209 19.6037 67.5341 19.6037 47.6419C19.6037 41.9555 21.1752 39.102 24.4837 35.4626C23.946 34.1186 22.1884 28.5769 25.0213 21.4223C29.343 20.0783 39.2891 27.0054 39.2891 27.0054C43.4247 25.8474 47.8704 25.2478 52.2748 25.2478C56.6792 25.2478 61.125 25.8474 65.2606 27.0054C65.2606 27.0054 75.2066 20.0576 79.5283 21.4223C82.3612 28.5976 80.6036 34.1186 80.066 35.4626C83.3744 39.1226 85.4009 41.9762 85.4009 47.6419C85.4009 67.5961 73.2216 69.1883 61.6626 70.4911C63.565 72.1246 65.1778 75.2263 65.1778 80.0856C65.1778 87.0541 65.1158 95.6768 65.1158 97.3724C65.1158 98.7164 66.067 100.35 68.6931 99.8744C89.371 93.0093 103.391 73.386 103.391 50.4541C103.391 21.7739 80.128 0 51.4477 0ZM20.9271 71.3182C20.6583 71.5249 20.7203 72.0005 21.0718 72.3934C21.4027 72.7243 21.8783 72.869 22.1471 72.6002C22.4159 72.3934 22.3538 71.9178 22.0023 71.5249C21.6715 71.1941 21.1959 71.0494 20.9271 71.3182ZM18.6939 69.6433C18.5491 69.9121 18.7559 70.2429 19.1694 70.4497C19.5003 70.6565 19.9139 70.5944 20.0586 70.305C20.2033 70.0361 19.9966 69.7053 19.583 69.4985C19.1694 69.3744 18.8386 69.4365 18.6939 69.6433ZM25.3935 77.0046C25.0627 77.2734 25.1867 77.8938 25.6623 78.2866C26.1379 78.7622 26.7376 78.8243 27.0064 78.4934C27.2752 78.2246 27.1511 77.6043 26.7376 77.2114C26.2827 76.7358 25.6623 76.6738 25.3935 77.0046ZM23.0362 73.9649C22.7054 74.1717 22.7054 74.7094 23.0362 75.1849C23.3671 75.6605 23.9254 75.8673 24.1942 75.6605C24.525 75.3917 24.525 74.8541 24.1942 74.3785C23.9047 73.9029 23.3671 73.6961 23.0362 73.9649Z" fill="#FF5B51"/>
</svg>
