<svg width="100" height="101" viewBox="0 0 100 101" fill="none" xmlns="http://www.w3.org/2000/svg">
<path d="M92.8571 0.171875H7.12054C3.19196 0.171875 0 3.40848 0 7.3817V92.9621C0 96.9353 3.19196 100.172 7.12054 100.172H92.8571C96.7857 100.172 100 96.9353 100 92.9621V7.3817C100 3.40848 96.7857 0.171875 92.8571 0.171875ZM30.2232 85.8862H15.4018V38.1629H30.2455V85.8862H30.2232ZM22.8125 31.6451C18.058 31.6451 14.2188 27.7835 14.2188 23.0513C14.2188 18.3192 18.058 14.4576 22.8125 14.4576C27.5446 14.4576 31.4062 18.3192 31.4062 23.0513C31.4062 27.8058 27.567 31.6451 22.8125 31.6451V31.6451ZM85.7812 85.8862H70.9598V62.6719C70.9598 57.1362 70.8482 50.0156 63.2589 50.0156C55.5357 50.0156 54.3527 56.0424 54.3527 62.2701V85.8862H39.5313V38.1629H53.75V44.6808H53.9509C55.9375 40.9308 60.7813 36.9799 67.9911 36.9799C82.9911 36.9799 85.7812 46.8683 85.7812 59.7254V85.8862V85.8862Z" fill="#FF5B51"/>
</svg>
