<svg width="101" height="100" viewBox="0 0 101 100" fill="none" xmlns="http://www.w3.org/2000/svg">
<path d="M50.8281 0C23.2072 0 0.828125 22.379 0.828125 50C0.828125 77.621 23.2072 100 50.8281 100C78.4491 100 100.828 77.621 100.828 50C100.828 22.379 78.4491 0 50.8281 0ZM75.3846 34.254L67.1789 72.9234C66.5741 75.6653 64.941 76.3306 62.6628 75.0403L50.1628 65.8266L44.1346 71.6331C43.4693 72.2984 42.9047 72.8629 41.6144 72.8629L42.5015 60.1411L65.6668 39.2137C66.6749 38.3266 65.4451 37.8226 64.1144 38.7097L35.4854 56.7339L23.1467 52.8831C20.4652 52.0363 20.4047 50.2016 23.7112 48.9113L71.9168 30.3226C74.1547 29.5161 76.1104 30.8669 75.3846 34.254V34.254Z" fill="#FF5B51"/>
</svg>
