<svg width="100" height="101" viewBox="0 0 100 101" fill="none" xmlns="http://www.w3.org/2000/svg">
<path d="M50 20.4397C33.7723 20.4397 20.5804 33.6317 20.558 49.8594C20.558 55.4174 22.1205 60.8415 25.067 65.5067L25.7589 66.6228L22.7902 77.471L33.9286 74.5469L35 75.1942C39.5089 77.8728 44.6875 79.3013 49.9777 79.3013H50C66.2054 79.3013 79.7545 66.1094 79.7545 49.8817C79.7545 42.0246 76.3616 34.6362 70.8036 29.0781C65.2232 23.4978 57.8571 20.4397 50 20.4397ZM67.2991 62.4933C66.5625 64.5692 63.0357 66.4442 61.3393 66.6897C58.5268 67.1138 56.3393 66.8906 50.7366 64.4799C41.875 60.6406 36.0714 51.7121 35.625 51.1317C35.1786 50.5513 32.0089 46.3326 32.0089 41.9799C32.0089 37.6272 34.2857 35.4844 35.1116 34.5915C35.9152 33.6987 36.875 33.4754 37.4777 33.4754C38.058 33.4754 38.6607 33.4754 39.1741 33.4978C39.7098 33.5201 40.4464 33.2969 41.1607 35.0156C41.8973 36.779 43.6607 41.1317 43.8839 41.5781C44.1071 42.0246 44.2634 42.5379 43.9509 43.1183C42.2545 46.5112 40.4464 46.3772 41.3616 47.9397C44.7768 53.8103 48.192 55.8415 53.3929 58.4531C54.2857 58.8996 54.7991 58.8326 55.3125 58.2299C55.8259 57.6496 57.5223 55.6406 58.1027 54.7701C58.683 53.8772 59.2857 54.0335 60.0893 54.3237C60.8929 54.6138 65.2455 56.7567 66.1384 57.2031C67.0312 57.6496 67.6116 57.8728 67.8348 58.2299C68.0357 58.654 68.0357 60.4397 67.2991 62.4933V62.4933ZM89.2857 0.171875H10.7143C4.79911 0.171875 0 4.97098 0 10.8862V89.4576C0 95.3728 4.79911 100.172 10.7143 100.172H89.2857C95.2009 100.172 100 95.3728 100 89.4576V10.8862C100 4.97098 95.2009 0.171875 89.2857 0.171875ZM49.9777 85.2612C44.0402 85.2612 38.2143 83.7656 33.058 80.9531L14.2857 85.8862L19.308 67.5379C16.2054 62.1808 14.5759 56.0871 14.5759 49.8371C14.5982 30.3281 30.4687 14.4576 49.9777 14.4576C59.442 14.4576 68.3259 18.1406 75.0223 24.8371C81.6964 31.5335 85.7143 40.4174 85.7143 49.8817C85.7143 69.3906 69.4866 85.2612 49.9777 85.2612Z" fill="#FF5B51"/>
</svg>
